<?xml version="1.0" encoding="UTF-8"?>
<svg id="Layer_1" data-name="Layer 1" xmlns="http://www.w3.org/2000/svg" viewBox="0 0 937.64 390.76">
  <g>
    <path d="M226.46,48.91l-8.81-46.31c-.28-1.7-1.99-2.84-3.41-2.56-33.24,4.26-58.82,23.87-73.59,56.54-6.82,15.34-11.08,31.54-12.5,48.3,0,1.42.85,2.84,2.27,3.13h.85c1.14,0,2.27-.57,2.84-1.7,28.13-53.98,88.36-53.98,88.93-53.98.85,0,1.99-.28,2.56-1.14.85-.57,1.14-1.42.85-2.27Z" style="fill: #76b943;"/>
    <g>
      <path d="M145.76,318.84c-18.75,0-34.1-15.06-34.38-33.81,0-1.7,0-3.13.28-4.83-16.2-2.84-27.84-16.76-28.13-33.24,0-3.69.57-7.1,1.7-10.51-16.2-2.84-28.13-16.76-28.13-33.24,0-3.98.85-8.24,2.27-11.93-17.62-1.42-31.25-15.91-31.54-33.81,0-3.69.57-7.67,1.99-11.08C11.65,142.39,0,124.49,3.7,106.02c3.41-15.91,17.62-26.99,33.81-26.71,10.51,0,20.46,4.83,26.99,13.07,11.93-15.06,33.81-17.33,48.59-5.4,1.99,1.7,3.98,3.41,5.4,5.4,11.93-15.06,33.81-17.33,48.59-5.4,1.99,1.7,3.98,3.41,5.4,5.4,11.93-15.06,33.81-17.33,48.59-5.4,1.99,1.7,3.98,3.41,5.4,5.4,6.54-8.24,16.48-13.07,26.99-13.07,18.75-.28,34.1,14.77,34.38,33.24.28,17.9-13.35,32.68-31.25,34.38,1.14,3.41,1.7,6.82,1.7,10.51.85,15.91-10.51,29.83-26.42,32.96,1.7,3.98,2.56,8.24,2.56,12.5-.28,16.76-12.79,30.97-29.27,33.53,1.14,3.41,1.7,6.82,1.7,10.23,0,15.91-11.37,29.83-26.99,32.96.28,1.7.28,3.41.28,5.11-.28,19.04-15.63,34.1-34.38,34.1Z" style="fill: #a52531;"/>
      <path d="M254.3,82.44c17.05-.28,30.97,13.35,31.25,30.12.28,17.05-13.35,30.97-30.12,31.25h-2.56c1.99,4.26,3.13,8.81,3.13,13.64,0,16.2-12.79,29.55-28.98,30.69,2.56,4.55,3.98,9.94,3.98,15.06,0,16.76-13.92,30.69-30.69,30.69,1.99,3.98,3.13,8.52,3.13,13.07,0,15.63-11.93,28.7-27.56,30.4.57,2.56,1.14,5.11,1.14,7.67-.28,17.33-14.49,30.97-31.82,30.69-16.76-.28-30.4-13.92-30.69-30.69,0-2.56.28-5.11.85-7.39-16.2-1.14-28.41-14.49-28.7-30.69,0-4.55,1.14-9.09,3.13-13.07-16.48-.85-29.27-14.21-29.55-30.69,0-5.4,1.42-10.51,3.98-15.06h-1.99c-17.05.28-31.25-13.64-31.25-30.69h0c0-4.83,1.14-9.38,3.13-13.64-16.76-1.42-29.55-16.48-27.84-33.24,1.42-16.2,15.06-28.41,31.25-28.13,11.08,0,21.31,5.97,26.99,15.34,8.81-15.06,28.13-19.89,43.19-11.08,4.55,2.56,8.24,6.54,11.08,11.08,8.81-15.06,28.13-19.89,43.19-11.08,4.55,2.56,8.24,6.54,11.08,11.08,8.81-15.06,28.13-19.89,43.19-11.08,4.55,2.56,8.24,6.54,11.08,11.08,5.4-9.38,15.91-15.34,26.99-15.34M254.3,76.19c-10.23,0-19.89,4.26-26.99,11.37-14.49-15.06-38.36-15.34-53.42-.85-.28.28-.57.57-.85.85-14.49-15.06-38.36-15.34-53.42-.85-.28.28-.57.57-.85.85-14.49-15.06-38.36-15.34-53.42-.85l-.85.85c-7.1-7.39-16.76-11.37-26.99-11.37C17.05,75.91.29,92.1,0,112.56c-.28,16.2,10.23,30.69,25.86,35.8-.85,2.84-1.14,5.97-1.14,9.09,0,17.9,12.79,33.24,30.4,36.37-.85,3.13-1.14,6.25-1.14,9.38,0,16.76,11.37,31.25,27.56,35.52-.57,2.56-.85,5.4-.85,8.24.28,16.76,11.65,31.25,27.84,35.8v2.56c0,20.74,16.76,37.51,37.51,37.51s37.51-16.76,37.51-37.51v-2.84c15.63-4.55,26.42-19.04,26.71-35.23,0-2.56-.28-5.4-.85-7.96,16.48-3.98,28.41-18.75,28.41-35.8,0-3.41-.57-7.1-1.42-10.51,15.63-4.83,26.42-19.04,26.42-35.23,0-2.56-.28-5.4-.85-7.96,20.17-3.69,33.53-22.73,29.83-42.9-3.69-18.18-19.32-30.97-37.51-30.69h0Z" style="fill: #fff;"/>
    </g>
    <path d="M179.29,219.68c-3.13,2.56-6.54,4.55-10.23,6.54-24.44,11.65-53.13,3.13-63.65-19.04h0c17.05,8.52,37.51,8.52,54.55,0,1.7-.85,3.41-1.7,5.11-2.84,3.41,6.25,8.24,11.65,14.21,15.34Z" style="fill: #fff;"/>
    <circle cx="104" cy="156.88" r="20.17" style="fill: #fff;"/>
    <circle cx="178.44" cy="156.88" r="20.17" transform="translate(-5 307.89) rotate(-80.78)" style="fill: #fff;"/>
    <circle cx="115.08" cy="144.1" r="12.79" style="fill: #a52531;"/>
    <circle cx="192.65" cy="143.81" r="12.79" style="fill: #a52531;"/>
    <g>
      <path d="M306.87,255.76h-23.01v-87.23h21.59v12.5c2.56-4.55,5.97-8.52,9.94-11.65,3.13-1.99,6.54-2.84,9.94-2.84,5.4,0,10.51,1.42,15.34,4.26l-7.1,20.17c-3.13-2.27-6.82-3.69-10.8-3.69-2.84,0-5.97.85-8.24,2.56-2.84,2.56-4.55,5.97-5.4,9.66-1.42,4.55-1.99,14.49-1.99,29.27l-.28,26.99Z" style="fill: #a52531;"/>
      <path d="M359.15,195.24l-21.03-3.69c1.7-7.39,5.97-14.21,12.22-18.75,5.68-3.98,14.21-5.97,25.57-5.97,10.23,0,17.9,1.14,23.01,3.69,4.55,1.99,8.24,5.11,10.51,9.38,1.99,3.69,3.13,10.51,3.13,20.74l-.28,26.99c-.28,5.68.28,11.37,1.14,17.05.85,3.98,2.27,7.96,4.26,11.65h-22.73c-.57-1.42-1.42-3.69-2.27-6.82-.28-1.42-.57-2.27-.85-2.84-3.69,3.69-7.96,6.54-12.79,8.52-4.55,1.99-9.38,2.84-14.49,2.84-7.67.57-15.34-2.27-21.31-7.39-5.11-4.83-7.96-11.65-7.67-18.47,0-4.55,1.14-9.09,3.41-13.07,2.27-3.98,5.68-6.82,9.94-8.81,5.97-2.56,11.93-4.26,18.47-5.4,7.67-1.14,15.06-3.13,22.45-5.68v-2.27c.28-3.41-.85-7.1-3.41-9.38-2.27-1.99-6.25-2.84-12.5-2.84-3.41-.28-6.82.57-9.66,2.56-1.99,1.42-3.98,4.55-5.11,7.96ZM390.12,213.99c-4.55,1.42-9.38,2.56-14.21,3.41-4.26.57-8.52,1.99-12.5,3.98-2.84,1.7-4.55,4.83-4.55,8.24,0,3.13,1.42,6.25,3.69,8.52,2.56,2.27,5.68,3.69,9.09,3.41,4.26,0,8.52-1.42,11.93-3.98,2.56-1.99,4.55-4.55,5.4-7.67.85-3.69,1.14-7.39.85-11.37l.28-4.55Z" style="fill: #a52531;"/>
      <path d="M419.1,230.76l23.3-3.41c.57,3.98,2.84,7.67,5.97,10.23,3.69,2.56,8.24,3.69,12.79,3.41,4.83.28,9.38-.85,13.64-3.41,1.99-1.42,3.13-3.69,3.13-6.25,0-1.7-.57-3.13-1.7-4.26-2.27-1.7-4.83-2.56-7.67-3.13-18.75-3.98-30.4-7.96-35.52-11.37-6.54-4.26-10.51-11.65-10.23-19.61,0-7.39,3.13-14.49,9.09-19.04,5.97-5.11,15.34-7.67,27.84-7.67s20.74,1.99,26.71,5.97c5.97,3.98,10.23,10.23,11.93,17.33l-21.88,3.98c-.85-3.13-2.56-5.97-5.4-7.96-3.41-1.99-7.1-2.84-11.08-2.84-4.55-.28-9.09.57-13.07,2.56-1.7.85-2.56,2.84-2.56,4.55s.85,3.13,2.27,4.26c1.99,1.42,9.38,3.69,21.59,6.54,12.22,2.84,21.03,6.25,25.86,10.23,4.83,4.26,7.67,10.8,7.1,17.33,0,7.96-3.69,15.63-9.94,20.74-6.82,5.68-16.48,8.52-29.83,8.52-11.93,0-21.31-2.27-28.13-7.1-7.39-4.55-12.22-11.37-14.21-19.61Z" style="fill: #a52531;"/>
      <path d="M507.46,168.53h21.59v12.79c2.84-4.55,6.82-8.24,11.37-10.8,4.83-2.84,10.23-4.26,15.91-3.98,9.94,0,19.32,4.26,25.86,11.93,7.1,7.96,10.51,19.04,10.51,33.24s-3.69,25.86-10.8,34.1c-6.25,7.67-15.91,12.22-25.86,12.22-4.55,0-9.09-.85-13.07-2.84-4.55-2.56-8.81-5.97-12.5-9.94v44.04h-23.01v-120.76ZM530.19,210.58c0,9.94,1.99,17.05,5.97,21.88,3.41,4.55,8.52,7.1,14.21,7.1,5.11,0,10.23-2.27,13.35-6.54,3.69-4.26,5.4-11.37,5.4-21.31,0-9.09-1.7-15.91-5.4-20.46-3.13-4.26-8.24-6.82-13.64-6.54-5.4,0-10.51,2.27-13.92,6.54-3.98,4.26-5.97,10.8-5.97,19.32h0Z" style="fill: #a52531;"/>
      <path d="M601.8,156.6v-21.31h23.01v21.31h-23.01ZM601.8,255.76v-87.23h23.01v87.23h-23.01Z" style="fill: #a52531;"/>
      <path d="M640.15,255.76v-120.47h23.01v63.93l26.99-30.69h28.41l-29.83,31.82,32.11,55.41h-24.72l-21.88-39.21-10.8,11.37v27.84h-23.3Z" style="fill: #76b943;"/>
      <path d="M727.67,156.6v-21.31h23.01v21.31h-23.01ZM727.67,255.76v-87.23h23.01v87.23h-23.01Z" style="fill: #76b943;"/>
      <path d="M845.58,255.76h-21.59v-12.79c-3.13,4.83-7.67,8.52-12.5,11.08-4.55,2.27-9.66,3.69-14.77,3.69-9.94,0-19.32-4.55-25.86-12.22-7.1-7.96-10.8-19.32-10.8-33.81s3.41-26.14,10.51-33.81c6.53-7.67,16.2-11.93,26.42-11.65,9.94,0,19.04,4.55,25.29,12.22v-43.19h23.01l.28,120.47ZM783.92,210.3c0,9.38,1.42,16.2,3.98,20.17,3.13,5.68,9.09,9.09,15.63,9.09,5.4,0,10.23-2.56,13.64-6.82,3.69-4.55,5.68-11.37,5.68-20.17,0-9.94-1.7-17.33-5.4-21.59-3.41-4.26-8.52-6.82-13.92-6.54-5.4,0-10.51,2.27-13.92,6.54-3.98,3.98-5.68,10.51-5.68,19.32Z" style="fill: #76b943;"/>
      <path d="M937.64,255.76h-21.59v-12.79c-3.13,4.83-7.67,8.52-12.5,11.08-4.55,2.27-9.66,3.69-14.77,3.69-9.94,0-19.32-4.55-25.86-12.22-7.1-7.96-10.8-19.32-10.8-33.81s3.41-26.14,10.51-33.81c6.53-7.67,16.2-11.93,26.42-11.65,9.94,0,19.04,4.55,25.29,12.22v-43.19h23.01v120.47h.28ZM875.98,210.3c0,9.38,1.42,16.2,3.98,20.17,3.13,5.68,9.09,9.09,15.63,9.09,5.4,0,10.23-2.56,13.64-6.82,3.69-4.55,5.68-11.37,5.68-20.17,0-9.94-1.7-17.33-5.4-21.59-3.41-4.26-8.52-6.82-13.92-6.54-5.4,0-10.51,2.27-13.64,6.54-3.98,3.98-5.97,10.51-5.97,19.32Z" style="fill: #76b943;"/>
    </g>
  </g>
  <text transform="translate(285.56 361.2)" style="font-family: Quicksand-Bold, Quicksand; font-size: 97.57px; font-weight: 700;"><tspan x="0" y="0" style="fill: #3c6997;">D</tspan><tspan x="69.76" y="0" style="fill: #3c6997; letter-spacing: -.02em;">r</tspan><tspan x="109.97" y="0" style="fill: #3c6997; letter-spacing: 0em;">e</tspan><tspan x="167.92" y="0" style="fill: #3c6997;">am </tspan><tspan x="346.48" y="0" style="fill: #38686b;">Digital</tspan></text>
</svg>